<svg height='100px' width='100px'  fill="#f73b99" xmlns="http://www.w3.org/2000/svg" xmlns:xlink="http://www.w3.org/1999/xlink" version="1.1" x="0px" y="0px" viewBox="0 0 134.189 148.869" style="enable-background:new 0 0 134.189 148.869;" xml:space="preserve"><g><path d="M29.272,90.721c0.603-6.574,1.609-11.897,2.821-16.209V62.56V59.56h3h4.623c0.112-0.114,0.222-0.219,0.333-0.326v0.326   h54.092v-0.337c0.109,0.107,0.22,0.223,0.33,0.337h4.624h3v2.999v11.959c1.214,4.316,2.224,9.637,2.823,16.19   c-0.703,0.317-1.684,0.698-2.823,1.041v16.482c3.036-0.652,6.034-1.491,8.854-2.69c2.144-0.94,4.251-2.063,6.258-3.982   c1.973-1.829,3.928-5.072,3.891-8.807c0-0.263-0.008-0.554-0.031-0.865c-1.648-22.435-7.592-35.627-14.987-43.344   c-3.673-3.826-7.636-6.122-11.054-7.359c-3.422-1.246-6.267-1.482-7.949-1.482c-0.158,0-0.3,0.003-0.438,0.007   c-0.076-0.003-0.15-0.012-0.227-0.012H84.8c-4.491,4.623-10.767,7.503-17.705,7.503s-13.214-2.88-17.706-7.503h-1.611   c-0.082,0-0.16,0.01-0.242,0.012c-0.134-0.003-0.271-0.006-0.424-0.006c-1.684,0-4.529,0.232-7.951,1.479   c-5.146,1.831-11.438,6.162-16.284,14.229c-4.88,8.064-8.51,19.616-9.754,36.476c-0.018,0.241-0.034,0.545-0.032,0.863   c-0.039,3.734,1.918,6.98,3.891,8.809c3.531,3.272,7.272,4.515,11.22,5.712c1.275,0.358,2.581,0.671,3.892,0.955v-16.49   C30.956,91.396,29.977,91.046,29.272,90.721z"></path><circle cx="67.095" cy="22.5" r="22.5"></circle><path d="M99.094,111.06v-48.5h-64v48.5H99.094z M67.095,74.31c2.209,0,4,1.791,4,4c0,2.209-1.791,4-4,4s-4-1.791-4-4   C63.095,76.101,64.886,74.31,67.095,74.31z"></path><polygon points="43.993,114.06 60.852,119.56 73.339,119.56 90.198,114.06  "></polygon><path d="M54.523,141.02c-2.461-7.542,1.593-15.658,9.049-18.258l-47.371-15.454c-6.492-2.118-13.471,1.43-15.588,7.921   c-2.117,6.489,1.426,13.47,7.92,15.588l49.815,16.251C56.641,145.454,55.301,143.405,54.523,141.02z"></path><path d="M64.531,124.747c-6.494,2.118-10.037,9.098-7.918,15.59c2.117,6.489,9.094,10.037,15.588,7.919l53.457-17.439   c6.492-2.118,10.035-9.099,7.918-15.588c-2.117-6.491-9.096-10.039-15.588-7.921L64.531,124.747z"></path></g></svg>